<?xml version="1.0" encoding="UTF-8"?>
<svg viewBox="0 0 32 32" xmlns="http://www.w3.org/2000/svg" width="300px" height="300px" fill="none">
  <rect width="32" height="32" fill="#442793" rx="4"></rect>
  <path fill="#E7E3E1" d="M5.881 19.618h3.013V9.163h2.214V6.375h-7.42v2.788H5.88v10.455ZM12.553 22.618h7.195V19.83h-4.243v-2.808h3.936v-2.255h-3.936v-2.604h4.202V9.375h-7.154v13.243ZM21.43 25.618h3.607c2.255 0 3.24-1.127 3.24-2.747 0-1.23-.431-2.173-2.768-5.842-.349-.575-.8-1.19-1.066-1.886.369-.021.881-.021 1.599-.021h2.09v-2.747h-3.3c-1.906 0-3.157.902-3.157 2.993 0 1.599 1.005 3.219 3.055 6.355.246.349.512.718.717 1.107-.492.02-1.004.02-1.476.02H21.43v2.768Z"></path>
</svg>
