<?xml version="1.0" encoding="UTF-8"?>
<svg viewBox="0 0 300 81" xmlns="http://www.w3.org/2000/svg" width="300px" height="81px" fill="none">
  <g clip-path="url(#a)">
    <path stroke="#432593" stroke-miterlimit="10" d="M291.62.34a147.23 147.23 0 0 1 5.51 40 147.23 147.23 0 0 1-5.51 40"></path>
    <path stroke="#432593" stroke-miterlimit="10" d="M286.52.34a142.234 142.234 0 0 1 5.71 40 142.234 142.234 0 0 1-5.71 40"></path>
    <path stroke="#432593" stroke-miterlimit="10" d="M291.62 80.34a147.23 147.23 0 0 0 5.51-40 147.23 147.23 0 0 0-5.51-40M281.36.34a137.314 137.314 0 0 1 5.93 40 137.314 137.314 0 0 1-5.93 40"></path>
    <path stroke="#432593" stroke-miterlimit="10" d="M286.52 80.34a142.234 142.234 0 0 0 5.71-40 142.234 142.234 0 0 0-5.71-40M276.27.34a132.329 132.329 0 0 1 6.16 40 132.33 132.33 0 0 1-6.16 40"></path>
    <path stroke="#432593" stroke-miterlimit="10" d="M281.36 80.34a137.314 137.314 0 0 0 5.93-40 137.314 137.314 0 0 0-5.93-40M271.12.34a127.366 127.366 0 0 1 6.41 40 127.366 127.366 0 0 1-6.41 40"></path>
    <path stroke="#432593" stroke-miterlimit="10" d="M276.27 80.34a132.33 132.33 0 0 0 6.16-40 132.329 132.329 0 0 0-6.16-40M265.95.34a122.437 122.437 0 0 1 6.68 40 122.437 122.437 0 0 1-6.68 40"></path>
    <path stroke="#432593" stroke-miterlimit="10" d="M271.12 80.34a127.366 127.366 0 0 0 6.41-40 127.366 127.366 0 0 0-6.41-40M260.75.34a117.498 117.498 0 0 1 7 40 117.497 117.497 0 0 1-7 40"></path>
    <path stroke="#432593" stroke-miterlimit="10" d="M265.95 80.34a122.437 122.437 0 0 0 6.68-40 122.437 122.437 0 0 0-6.68-40M255.52.34a112.552 112.552 0 0 1 7.31 40 112.551 112.551 0 0 1-7.31 40"></path>
    <path stroke="#432593" stroke-miterlimit="10" d="M260.75 80.34a117.497 117.497 0 0 0 7-40 117.498 117.498 0 0 0-7-40M250.26.34a107.615 107.615 0 0 1 7.66 40 107.614 107.614 0 0 1-7.66 40"></path>
    <path stroke="#432593" stroke-miterlimit="10" d="M255.52 80.34a112.551 112.551 0 0 0 7.31-40 112.552 112.552 0 0 0-7.31-40M244.97.34a102.692 102.692 0 0 1 8.05 40 102.692 102.692 0 0 1-8.05 40"></path>
    <path stroke="#432593" stroke-miterlimit="10" d="M250.26 80.34a107.614 107.614 0 0 0 7.66-40 107.615 107.615 0 0 0-7.66-40M239.62.34a97.772 97.772 0 0 1 8.5 40 97.772 97.772 0 0 1-8.5 40"></path>
    <path stroke="#432593" stroke-miterlimit="10" d="M244.97 80.34a102.692 102.692 0 0 0 8.05-40 102.692 102.692 0 0 0-8.05-40M234.22.34a92.853 92.853 0 0 1 9 40 92.853 92.853 0 0 1-9 40"></path>
    <path stroke="#432593" stroke-miterlimit="10" d="M239.62 80.34a97.772 97.772 0 0 0 8.5-40 97.772 97.772 0 0 0-8.5-40M228.76.34a87.942 87.942 0 0 1 9.56 40 87.942 87.942 0 0 1-9.56 40"></path>
    <path stroke="#432593" stroke-miterlimit="10" d="M234.22 80.34a92.853 92.853 0 0 0 9-40 92.853 92.853 0 0 0-9-40M223.21.34a82.995 82.995 0 0 1 10.21 40 82.995 82.995 0 0 1-10.21 40"></path>
    <path stroke="#432593" stroke-miterlimit="10" d="M228.76 80.34a87.942 87.942 0 0 0 9.56-40 87.942 87.942 0 0 0-9.56-40M217.56.34a78.13 78.13 0 0 1 11 40 78.13 78.13 0 0 1-11 40"></path>
    <path stroke="#432593" stroke-miterlimit="10" d="M223.21 80.34a82.995 82.995 0 0 0 10.21-40 82.995 82.995 0 0 0-10.21-40"></path>
    <path stroke="#432593" stroke-miterlimit="10" d="M211.79.34a73.243 73.243 0 0 1 11.83 40 73.243 73.243 0 0 1-11.83 40"></path>
    <path stroke="#432593" stroke-miterlimit="10" d="M217.56 80.34a78.13 78.13 0 0 0 11-40 78.13 78.13 0 0 0-11-40"></path>
    <path stroke="#432593" stroke-miterlimit="10" d="M205.85.34a68.385 68.385 0 0 1 12.86 40 68.385 68.385 0 0 1-12.86 40"></path>
    <path stroke="#432593" stroke-miterlimit="10" d="M211.79 80.34a73.243 73.243 0 0 0 11.83-40 73.243 73.243 0 0 0-11.83-40"></path>
    <path stroke="#432593" stroke-miterlimit="10" d="M199.71.34a63.53 63.53 0 0 1 14.11 40 63.529 63.529 0 0 1-14.11 40"></path>
    <path stroke="#432593" stroke-miterlimit="10" d="M205.85 80.34a68.385 68.385 0 0 0 12.86-40 68.385 68.385 0 0 0-12.86-40"></path>
    <path stroke="#432593" stroke-miterlimit="10" d="M193.24.34a58.692 58.692 0 0 1 15.68 40 58.692 58.692 0 0 1-15.68 40"></path>
    <path stroke="#432593" stroke-miterlimit="10" d="M199.71 80.34a63.529 63.529 0 0 0 14.11-40 63.53 63.53 0 0 0-14.11-40"></path>
    <path stroke="#432593" stroke-miterlimit="10" d="M193.24 80.34a58.692 58.692 0 0 0 15.68-40 58.692 58.692 0 0 0-15.68-40M8.36 80.34a147.23 147.23 0 0 1-5.51-40 147.23 147.23 0 0 1 5.51-40"></path>
    <path stroke="#432593" stroke-miterlimit="10" d="M13.49 80.34a142.259 142.259 0 0 1-5.71-40 142.259 142.259 0 0 1 5.71-40"></path>
    <path stroke="#432593" stroke-miterlimit="10" d="M8.36.34a147.23 147.23 0 0 0-5.51 40 147.23 147.23 0 0 0 5.51 40M18.6 80.34a137.297 137.297 0 0 1-5.93-40 137.297 137.297 0 0 1 5.93-40"></path>
    <path stroke="#432593" stroke-miterlimit="10" d="M13.49.34a142.259 142.259 0 0 0-5.71 40 142.259 142.259 0 0 0 5.71 40M23.73 80.34a132.348 132.348 0 0 1-6.16-40 132.348 132.348 0 0 1 6.16-40"></path>
    <path stroke="#432593" stroke-miterlimit="10" d="M18.6.34a137.297 137.297 0 0 0-5.93 40 137.297 137.297 0 0 0 5.93 40M28.88 80.34a127.392 127.392 0 0 1-6.41-40 127.392 127.392 0 0 1 6.41-40"></path>
    <path stroke="#432593" stroke-miterlimit="10" d="M23.73.34a132.348 132.348 0 0 0-6.16 40 132.348 132.348 0 0 0 6.16 40M34.06 80.34a122.44 122.44 0 0 1-6.68-40 122.44 122.44 0 0 1 6.68-40"></path>
    <path stroke="#432593" stroke-miterlimit="10" d="M28.88.34a127.392 127.392 0 0 0-6.41 40 127.392 127.392 0 0 0 6.41 40M39.25 80.34a117.5 117.5 0 0 1-7-40 117.5 117.5 0 0 1 7-40"></path>
    <path stroke="#432593" stroke-miterlimit="10" d="M34.06.34a122.44 122.44 0 0 0-6.68 40 122.44 122.44 0 0 0 6.68 40M44.49 80.34a112.549 112.549 0 0 1-7.31-40 112.55 112.55 0 0 1 7.31-40"></path>
    <path stroke="#432593" stroke-miterlimit="10" d="M39.25.34a117.5 117.5 0 0 0-7 40 117.5 117.5 0 0 0 7 40M49.74 80.34a107.619 107.619 0 0 1-7.66-40 107.62 107.62 0 0 1 7.66-40"></path>
    <path stroke="#432593" stroke-miterlimit="10" d="M44.49.34a112.55 112.55 0 0 0-7.31 40 112.549 112.549 0 0 0 7.31 40M55.04 80.34a102.697 102.697 0 0 1-8.05-40 102.698 102.698 0 0 1 8.05-40"></path>
    <path stroke="#432593" stroke-miterlimit="10" d="M49.74.34a107.62 107.62 0 0 0-7.66 40 107.619 107.619 0 0 0 7.66 40M60.36 80.34a97.769 97.769 0 0 1-8.5-40 97.769 97.769 0 0 1 8.5-40"></path>
    <path stroke="#432593" stroke-miterlimit="10" d="M55.04.34a102.698 102.698 0 0 0-8.05 40 102.697 102.697 0 0 0 8.05 40M65.78 80.34a92.85 92.85 0 0 1-9-40 92.85 92.85 0 0 1 9-40"></path>
    <path stroke="#432593" stroke-miterlimit="10" d="M60.36.34a97.769 97.769 0 0 0-8.5 40 97.769 97.769 0 0 0 8.5 40M71.24 80.34a87.94 87.94 0 0 1-9.56-40 87.94 87.94 0 0 1 9.56-40"></path>
    <path stroke="#432593" stroke-miterlimit="10" d="M65.78.34a92.85 92.85 0 0 0-9 40 92.85 92.85 0 0 0 9 40M76.79 80.34a83 83 0 0 1-10.21-40 83 83 0 0 1 10.21-40"></path>
    <path stroke="#432593" stroke-miterlimit="10" d="M71.24.34a87.94 87.94 0 0 0-9.56 40 87.94 87.94 0 0 0 9.56 40M82.44 80.34a78.129 78.129 0 0 1-11-40 78.129 78.129 0 0 1 11-40"></path>
    <path stroke="#432593" stroke-miterlimit="10" d="M76.79.34a83 83 0 0 0-10.21 40 83 83 0 0 0 10.21 40"></path>
    <path stroke="#432593" stroke-miterlimit="10" d="M88.22 80.34a73.24 73.24 0 0 1-11.86-40 73.24 73.24 0 0 1 11.83-40"></path>
    <path stroke="#432593" stroke-miterlimit="10" d="M82.44.34a78.129 78.129 0 0 0-11 40 78.129 78.129 0 0 0 11 40"></path>
    <path stroke="#432593" stroke-miterlimit="10" d="M94.15 80.34a68.379 68.379 0 0 1-12.86-40 68.379 68.379 0 0 1 12.86-40"></path>
    <path stroke="#432593" stroke-miterlimit="10" d="M88.22.34a73.24 73.24 0 0 0-11.86 40 73.24 73.24 0 0 0 11.83 40"></path>
    <path stroke="#432593" stroke-miterlimit="10" d="M100.3 80.34a63.53 63.53 0 0 1-14.11-40 63.53 63.53 0 0 1 14.11-40"></path>
    <path stroke="#432593" stroke-miterlimit="10" d="M94.15.34a68.379 68.379 0 0 0-12.86 40 68.379 68.379 0 0 0 12.86 40"></path>
    <path stroke="#432593" stroke-miterlimit="10" d="M106.77 80.34a58.69 58.69 0 0 1-15.68-40 58.69 58.69 0 0 1 15.68-40"></path>
    <path stroke="#432593" stroke-miterlimit="10" d="M100.3.34a63.53 63.53 0 0 0-14.11 40 63.53 63.53 0 0 0 14.11 40"></path>
    <path stroke="#432593" stroke-miterlimit="10" d="M106.77.34a58.69 58.69 0 0 0-15.68 40 58.69 58.69 0 0 0 15.68 40"></path>
    <path fill="#432593" d="M132.1 25.54h-10v20.17h-8.74V25.54h-10V20.1h28.76v5.44h-.02ZM160.36 20.1v5.55h-14.77v4h13.17v5.44h-13.17v4.9h14.77v5.77h-23.3V20.15h23.3v-.05ZM184.54 27.68a3.5 3.5 0 0 0-1.27-2.72 6.11 6.11 0 0 0-4.24-1.38 7.422 7.422 0 0 0-3.19.69 3.163 3.163 0 0 0-2 2.72 2.307 2.307 0 0 0 1.92 2.25c1.486.252 2.993.363 4.5.33 2.666-.06 5.33.186 7.94.73a8 8 0 0 1 4.71 2.94 6.561 6.561 0 0 1 1.31 4.1 8.283 8.283 0 0 1-4.86 7.44c-4 2-9.43 1.92-10.37 1.92-.94 0-1.56 0-2.32-.07-6.13-.36-9.43-2.36-11-4.68a9.706 9.706 0 0 1-1.52-4.28h9.18c.045.61.18 1.21.4 1.78.62 1.23 2.25 2.65 5.48 2.65 2.61 0 6.06-1 6.06-3.66a2.55 2.55 0 0 0-2.14-2.36 40.689 40.689 0 0 0-4.68-.36 58.008 58.008 0 0 1-6.17-.47c-2.29-.36-4.28-.94-5.77-2.83a6.432 6.432 0 0 1-1.49-4.35 7.819 7.819 0 0 1 4.64-7.18c1.67-.87 5-1.78 9.61-1.78 6.82 0 10.84 2.1 12.59 4.61a8.484 8.484 0 0 1 1.31 4h-8.6l-.03-.04ZM114.72 56.94a4.698 4.698 0 0 0-.14-.62 2 2 0 0 0-2-1.14 3.396 3.396 0 0 0-1.22.2 1.256 1.256 0 0 0-.89 1.09.91.91 0 0 0 .23.6 2.7 2.7 0 0 0 1.69.47c.695.045 1.386.132 2.07.26a2.586 2.586 0 0 1 1.73 1.06c.239.377.364.814.36 1.26.007.482-.122.957-.37 1.37-.48.74-1.55 1.44-3.49 1.44a8.872 8.872 0 0 1-1.06-.07 3.85 3.85 0 0 1-2.16-.88 3.069 3.069 0 0 1-.56-.65 3.464 3.464 0 0 1-.42-1.34h1.81c.006.322.106.635.29.9a2.428 2.428 0 0 0 2.1.78 3.22 3.22 0 0 0 1.24-.22 1.3 1.3 0 0 0 .9-1.14.881.881 0 0 0-.55-.84 9.233 9.233 0 0 0-2.18-.3 5.44 5.44 0 0 1-2.34-.58 2.126 2.126 0 0 1-.77-.8 2.489 2.489 0 0 1-.26-1.14 2.313 2.313 0 0 1 .49-1.45c.18-.227.396-.423.64-.58a4.71 4.71 0 0 1 2.71-.67 4.57 4.57 0 0 1 2.9.88c.357.304.632.693.8 1.13.118.321.185.658.2 1h-1.7l-.05-.02ZM130.21 54.21v1.28h-2.85v7.18h-1.61v-7.18h-2.84v-1.28h7.3ZM143.54 54.21v1.26h-4.94v2.09h4.45v1.35h-4.46v2.48h5v1.28h-6.54V54.2h6.54l-.05.01ZM155.49 54.21c.95 0 2 0 2.6.84.276.38.42.84.41 1.31a1.88 1.88 0 0 1-.74 1.59c-.182.132-.38.24-.59.32.152.037.3.09.44.16a1.51 1.51 0 0 1 .8 1.58v1.76a1.058 1.058 0 0 0 .31.9h-1.74a1.397 1.397 0 0 1-.22-.92v-1.54a1.181 1.181 0 0 0-.3-1 1 1 0 0 0-.61-.16h-3v3.66h-1.6v-8.47h4.22l.02-.03Zm-2.61 3.49h2.55c.209.003.417-.02.62-.07a.999.999 0 0 0 .79-1.06.945.945 0 0 0-.4-.82 1.849 1.849 0 0 0-1.07-.26h-2.51v2.21h.02ZM173.05 54.21v1.26h-4.94v2.09h4.45v1.35h-4.46v2.48h5v1.28h-6.54V54.2h6.54l-.05.01ZM187.27 54.34a4.27 4.27 0 0 1 2.82 4.16c.004.436-.053.87-.17 1.29a4.315 4.315 0 0 1-3.09 3 5.913 5.913 0 0 1-1.61.2 5.422 5.422 0 0 1-3.53-1.18 4.305 4.305 0 0 1-1.44-3.29 4.347 4.347 0 0 1 1.08-3 4.84 4.84 0 0 1 3.91-1.54 6.001 6.001 0 0 1 2.03.36Zm-4.07 1.52a3.205 3.205 0 0 0-1.19 2.6 3.36 3.36 0 0 0 .68 2.1 3 3 0 0 0 2.51 1.15 3.11 3.11 0 0 0 2-.61 3.246 3.246 0 0 0 1.2-2.63 3.057 3.057 0 0 0-.856-2.339 3.048 3.048 0 0 0-2.314-.921 3.201 3.201 0 0 0-2.02.62l-.01.03Z"></path>
  </g>
  <defs>
    <clipPath id="a">
      <path fill="#fff" d="M0 0h300v81H0z"></path>
    </clipPath>
  </defs>
</svg>
